<?xml version="1.0" encoding="UTF-8"?>
<!DOCTYPE svg PUBLIC "-//W3C//DTD SVG 1.1//EN" "http://www.w3.org/Graphics/SVG/1.1/DTD/svg11.dtd">
<svg version="1.1" xmlns="http://www.w3.org/2000/svg" xmlns:xlink="http://www.w3.org/1999/xlink" x="0" y="0" width="840.286" height="868.248" viewBox="0, 0, 840.286, 868.248">
  <g id="Layer_1">
    <path d="M771.559,521.328 C786.974,524.803 814.859,534.228 824.724,551.988 C832.274,565.578 839.564,583.668 835.299,619.943 C832.274,645.618 821.709,746.798 806.604,766.428 C806.604,766.428 797.549,775.498 789.994,778.513 C782.439,781.533 755.264,777.003 747.709,777.003 C740.154,777.003 771.559,521.328 771.559,521.328" fill="#8A8B8A" id="path833"/>
    <path d="M771.559,521.328 C786.974,524.803 814.859,534.228 824.724,551.988 C832.274,565.578 839.564,583.668 835.299,619.943 C832.274,645.618 821.709,746.798 806.604,766.428 C806.604,766.428 797.549,775.498 789.994,778.513 C782.439,781.533 755.264,777.003 747.709,777.003 C740.154,777.003 771.559,521.328 771.559,521.328 z" fill-opacity="0" stroke="#1A1919" stroke-width="7.5" stroke-linecap="round" stroke-linejoin="round" id="path835"/>
    <path d="M684.059,512.578 C687.809,512.578 751.199,512.603 771.559,521.328 C789.059,528.828 809.059,537.578 811.559,561.328 C814.059,585.078 804.059,728.828 782.809,757.578 C777.809,761.328 776.559,770.078 761.559,775.078 C746.559,780.078 659.059,770.078 659.059,770.078 L684.059,512.578" fill="#4D7BB1" id="path837"/>
    <path d="M684.059,512.578 C687.809,512.578 751.199,512.603 771.559,521.328 C789.059,528.828 809.059,537.578 811.559,561.328 C814.059,585.078 804.059,728.828 782.809,757.578 C777.809,761.328 776.559,770.078 761.559,775.078 C746.559,780.078 659.059,770.078 659.059,770.078 L684.059,512.578" fill="#4D7BB1" id="path839"/>
    <path d="M811.559,561.328 C809.059,537.578 789.059,528.828 771.559,521.328 C759.489,516.158 732.299,514.038 711.374,513.178 C700.644,516.278 693.339,518.763 693.339,518.763 L712.979,517.253 C720.524,517.253 788.484,539.908 793.019,553.498 C797.544,567.088 782.439,728.678 770.359,752.838 C766.179,761.198 762.384,768.983 759.174,775.633 C760.079,775.473 760.909,775.293 761.559,775.078 C776.559,770.078 777.809,761.328 782.809,757.578 C804.059,728.828 814.059,585.078 811.559,561.328" fill="#7A97C1" id="path841"/>
    <path d="M684.059,512.578 C687.809,512.578 751.199,512.603 771.559,521.328 C789.059,528.828 809.059,537.578 811.559,561.328 C814.059,585.078 804.059,728.828 782.809,757.578 C777.809,761.328 776.559,770.078 761.559,775.078 C746.559,780.078 659.059,770.078 659.059,770.078 z" fill-opacity="0" stroke="#1A1919" stroke-width="7.5" stroke-linecap="round" stroke-linejoin="round" id="path843"/>
    <path d="M222.124,659.073 C227.124,660.323 270.874,685.323 283.374,709.073 L297.124,694.073 C297.124,694.073 268.374,656.573 262.124,652.823 C255.874,649.073 215.874,656.573 215.874,656.573 L222.124,659.073" fill="#FFFFFE" id="path845"/>
    <path d="M222.124,659.073 C227.124,660.323 270.874,685.323 283.374,709.073 L297.124,694.073 C297.124,694.073 268.374,656.573 262.124,652.823 C255.874,649.073 215.874,656.573 215.874,656.573 z" fill-opacity="0" stroke="#1A1919" stroke-width="7.5" stroke-linecap="round" stroke-linejoin="round" id="path847"/>
    <path d="M593.374,367.823 C598.374,369.073 605.874,370.323 609.624,372.823 C613.374,375.323 627.124,400.323 630.874,407.823 C633.374,407.823 682.124,451.573 697.124,474.073 C712.124,496.573 667.124,769.073 665.874,772.823 C664.624,776.573 664.624,774.073 664.624,776.573 C664.624,779.073 419.624,737.823 419.624,737.823 C409.624,719.073 377.124,635.323 370.874,611.573 C368.374,614.073 352.124,664.073 343.374,674.073 C333.054,685.858 305.874,715.323 288.374,725.323 C288.374,722.823 277.099,696.963 262.529,682.393 C243.879,663.748 217.124,652.823 210.874,652.823 C210.874,652.823 209.624,646.573 213.374,645.323 C217.124,644.073 260.874,629.073 260.874,629.073 C260.874,625.323 262.124,610.323 268.374,610.323 C274.624,610.323 278.374,607.823 278.374,607.823 C282.124,600.323 334.624,477.823 339.624,470.323 C339.624,465.323 357.124,440.323 357.124,440.323 C357.124,440.323 384.624,421.573 392.124,417.823 C399.624,414.073 593.374,367.823 593.374,367.823" fill="#464D5A" id="path849"/>
    <path d="M593.374,367.823 C598.374,369.073 605.874,370.323 609.624,372.823 C613.374,375.323 627.124,400.323 630.874,407.823 C633.374,407.823 682.124,451.573 697.124,474.073 C712.124,496.573 667.124,769.073 665.874,772.823 C664.624,776.573 664.624,774.073 664.624,776.573 C664.624,779.073 419.624,737.823 419.624,737.823 C409.624,719.073 377.124,635.323 370.874,611.573 C368.374,614.073 352.124,664.073 343.374,674.073 C333.054,685.858 305.874,715.323 288.374,725.323 C288.374,722.823 277.099,696.963 262.529,682.393 C243.879,663.748 217.124,652.823 210.874,652.823 C210.874,652.823 209.624,646.573 213.374,645.323 C217.124,644.073 260.874,629.073 260.874,629.073 C260.874,625.323 262.124,610.323 268.374,610.323 C274.624,610.323 278.374,607.823 278.374,607.823 C282.124,600.323 334.624,477.823 339.624,470.323 C339.624,465.323 357.124,440.323 357.124,440.323 C357.124,440.323 384.624,421.573 392.124,417.823 C399.624,414.073 593.374,367.823 593.374,367.823 z" fill-opacity="0" stroke="#1A1919" stroke-width="7.5" stroke-linecap="round" stroke-linejoin="round" id="path851"/>
    <path d="M407.124,440.323 C407.124,455.323 418.374,599.073 445.874,660.323 C458.374,649.073 568.374,449.073 588.374,419.073 C587.124,414.073 479.624,405.323 474.624,405.323 C469.624,405.323 407.124,440.323 407.124,440.323" fill="#FFFFFE" id="path853"/>
    <path d="M407.124,440.323 C407.124,455.323 418.374,599.073 445.874,660.323 C458.374,649.073 568.374,449.073 588.374,419.073 C587.124,414.073 479.624,405.323 474.624,405.323 C469.624,405.323 407.124,440.323 407.124,440.323 z" fill-opacity="0" stroke="#1A1919" stroke-width="7.5" stroke-linecap="round" stroke-linejoin="round" id="path855"/>
    <path d="M445.874,660.323 C450.239,656.393 466.504,629.428 486.659,594.748 C487.099,571.818 487.304,544.433 485.874,541.573 C483.374,536.573 480.874,526.573 480.874,526.573 C480.874,526.573 489.344,515.883 493.374,507.823 C499.624,495.323 507.124,489.073 504.624,482.823 C502.124,476.573 495.874,456.573 495.874,456.573 C495.874,456.573 465.249,453.448 458.374,460.323 C453.614,465.083 442.124,480.323 442.124,480.323 C442.124,480.323 440.874,517.823 442.124,522.823 C442.124,522.823 429.604,567.543 425.739,590.403 C431.144,617.248 437.804,642.348 445.874,660.323" fill="#D8127D" id="path857"/>
    <path d="M445.874,660.323 C450.239,656.393 466.504,629.428 486.659,594.748 C487.099,571.818 487.304,544.433 485.874,541.573 C483.374,536.573 480.874,526.573 480.874,526.573 C480.874,526.573 489.344,515.883 493.374,507.823 C499.624,495.323 507.124,489.073 504.624,482.823 C502.124,476.573 495.874,456.573 495.874,456.573 C495.874,456.573 465.249,453.448 458.374,460.323 C453.614,465.083 442.124,480.323 442.124,480.323 C442.124,480.323 440.874,517.823 442.124,522.823 C442.124,522.823 429.604,567.543 425.739,590.403 C431.144,617.248 437.804,642.348 445.874,660.323 z M444.624,519.073 C448.374,519.073 480.874,526.573 480.874,526.573 M442.124,480.323 C442.124,480.323 420.874,497.823 417.124,505.323 M505.874,486.573 C507.124,490.323 524.624,514.073 525.874,521.573 M278.374,607.823 C303.374,617.823 330.874,604.073 338.374,599.073 M344.624,479.073 C343.374,491.573 362.124,581.573 370.874,611.573" fill-opacity="0" stroke="#1A1919" stroke-width="7.5" stroke-linecap="round" stroke-linejoin="round" id="path859"/>
    <path d="M288.374,725.323 C287.124,726.573 272.124,731.573 272.124,731.573 C272.124,731.573 254.624,744.073 247.124,749.073 C239.624,754.073 223.374,755.323 217.124,756.573 C210.874,757.823 202.124,740.323 222.124,731.573 L220.874,724.073 L185.874,730.323 L187.124,737.823 C187.124,737.823 192.124,755.323 183.374,767.823 L172.124,765.323 L163.374,751.573 C163.374,762.823 159.624,769.073 154.624,771.573 C154.624,771.573 140.874,766.573 138.374,756.573 C138.374,756.573 133.699,770.958 127.124,766.573 C123.374,764.073 118.374,759.073 114.624,752.823 L109.624,761.573 C109.624,761.573 99.624,751.573 98.374,744.073 C97.124,736.573 100.874,721.573 100.874,721.573 C100.874,721.573 109.624,707.823 113.374,707.823 C114.624,704.073 123.374,696.573 123.374,696.573 L133.374,691.573 L142.124,681.573 L152.124,676.573 L163.374,664.073 C163.374,664.073 192.124,647.823 210.874,652.823 C229.624,657.823 279.624,687.823 288.374,725.323" fill="#F4BB9D" id="path861"/>
    <path d="M288.374,725.323 C287.124,726.573 272.124,731.573 272.124,731.573 C272.124,731.573 254.624,744.073 247.124,749.073 C239.624,754.073 223.374,755.323 217.124,756.573 C210.874,757.823 202.124,740.323 222.124,731.573 L220.874,724.073 L185.874,730.323 L187.124,737.823 C187.124,737.823 192.124,755.323 183.374,767.823 L172.124,765.323 L163.374,751.573 C163.374,762.823 159.624,769.073 154.624,771.573 C154.624,771.573 140.874,766.573 138.374,756.573 C138.374,756.573 133.699,770.958 127.124,766.573 C123.374,764.073 118.374,759.073 114.624,752.823 L109.624,761.573 C109.624,761.573 99.624,751.573 98.374,744.073 C97.124,736.573 100.874,721.573 100.874,721.573 C100.874,721.573 109.624,707.823 113.374,707.823 C114.624,704.073 123.374,696.573 123.374,696.573 L133.374,691.573 L142.124,681.573 L152.124,676.573 L163.374,664.073 C163.374,664.073 192.124,647.823 210.874,652.823 C229.624,657.823 279.624,687.823 288.374,725.323 z M114.624,714.073 C114.624,717.823 112.124,730.323 112.124,737.823 C112.124,745.323 114.624,752.823 114.624,752.823 M135.874,701.573 C134.624,709.073 132.124,722.823 132.124,729.073 C132.124,735.323 134.624,751.573 138.374,756.573 M153.374,681.573 C153.374,690.323 150.874,707.823 150.874,712.823 C150.874,717.823 159.624,742.823 159.624,742.823 L165.874,752.823 M185.874,692.823 C185.874,701.573 178.374,717.823 178.374,717.823 L185.874,734.073 M187.124,699.073 C190.874,699.073 200.874,692.823 200.874,692.823 M222.124,731.573 C228.374,729.073 232.124,727.823 232.124,727.823 L238.374,712.823 L233.374,704.073 M385.874,427.823 L365.874,482.823 C365.874,482.823 385.874,497.823 390.874,501.573 M408.374,490.323 C405.874,494.073 378.374,514.073 374.624,524.073 C370.874,534.073 400.874,634.073 439.624,670.323 M627.124,401.573 C628.374,406.573 625.874,479.073 624.624,482.823 C624.624,482.823 574.624,507.823 567.124,515.323 M547.124,495.323 C549.624,500.323 582.124,535.323 585.874,539.073 C583.374,549.073 468.374,654.073 442.124,684.073 C434.624,696.573 442.124,729.073 444.624,740.323 M449.624,656.573 C449.624,656.573 439.624,675.323 442.124,684.073 M522.124,634.073 C533.374,642.823 594.624,655.323 627.124,652.823 M477.124,712.198 C477.124,718.063 472.369,722.823 466.499,722.823 C460.629,722.823 455.874,718.063 455.874,712.198 C455.874,706.328 460.629,701.573 466.499,701.573 C472.369,701.573 477.124,706.328 477.124,712.198 z" fill-opacity="0" stroke="#1A1919" stroke-width="7.5" stroke-linecap="round" stroke-linejoin="round" id="path863"/>
    <path d="M330.874,121.573 C319.624,151.573 317.124,167.823 317.124,167.823 C317.124,167.823 305.874,192.823 305.874,197.823 L320.874,186.573 C320.874,186.573 305.874,214.073 305.874,220.323 C305.874,226.573 339.624,202.823 343.374,201.573 C347.124,200.323 660.874,337.823 660.874,337.823 C660.874,337.823 668.374,329.073 678.374,316.573 C688.374,304.073 714.624,270.323 714.624,251.573 C714.624,232.823 712.124,225.323 712.124,225.323 C712.529,175.723 708.374,126.573 682.124,106.573 C685.874,105.323 704.624,111.573 708.374,111.573 C708.374,107.823 690.874,77.823 663.374,74.073 C664.624,67.823 677.124,61.573 682.124,60.323 C682.124,60.323 652.124,37.823 630.874,47.823 C618.374,36.573 602.124,21.573 594.624,17.823 C587.124,14.073 567.124,6.573 557.124,5.323 L563.374,15.323 C555.874,9.073 517.124,0.323 502.124,5.323 C502.124,9.073 507.124,9.073 507.124,9.073 C479.199,5.723 364.219,27.418 330.874,121.573" fill="#2D2118" id="path865"/>
    <path d="M330.874,121.573 C319.624,151.573 317.124,167.823 317.124,167.823 C317.124,167.823 305.874,192.823 305.874,197.823 L320.874,186.573 C320.874,186.573 305.874,214.073 305.874,220.323 C305.874,226.573 339.624,202.823 343.374,201.573 C347.124,200.323 660.874,337.823 660.874,337.823 C660.874,337.823 668.374,329.073 678.374,316.573 C688.374,304.073 714.624,270.323 714.624,251.573 C714.624,232.823 712.124,225.323 712.124,225.323 C712.529,175.723 708.374,126.573 682.124,106.573 C685.874,105.323 704.624,111.573 708.374,111.573 C708.374,107.823 690.874,77.823 663.374,74.073 C664.624,67.823 677.124,61.573 682.124,60.323 C682.124,60.323 652.124,37.823 630.874,47.823 C618.374,36.573 602.124,21.573 594.624,17.823 C587.124,14.073 567.124,6.573 557.124,5.323 L563.374,15.323 C555.874,9.073 517.124,0.323 502.124,5.323 C502.124,9.073 507.124,9.073 507.124,9.073 C479.199,5.723 364.219,27.418 330.874,121.573 z" fill-opacity="0" stroke="#1A1919" stroke-width="7.5" stroke-linecap="round" stroke-linejoin="round" id="path867"/>
    <path d="M343.374,201.573 C342.124,205.323 335.874,247.823 333.374,256.573 C333.374,256.573 320.874,315.323 325.874,332.823 C330.874,350.323 348.374,381.573 364.624,404.073 C380.874,426.573 403.374,446.573 415.874,454.073 C428.374,461.573 453.374,460.323 458.374,460.323 C463.374,460.323 472.124,459.073 472.124,459.073 C472.124,459.073 498.374,466.573 502.124,466.573 C505.874,464.073 535.874,469.073 588.374,419.073 C590.874,411.573 599.624,390.323 603.374,376.573 C603.374,376.573 615.874,360.323 618.374,355.323 C622.124,359.073 622.124,359.073 630.874,359.073 C639.624,359.073 664.624,344.073 680.874,304.073 C684.624,287.823 678.374,247.823 664.624,249.073 C650.874,250.323 634.624,260.323 634.624,260.323 C634.624,260.323 614.624,230.323 608.374,226.573 L620.874,204.073 C620.874,204.073 619.624,175.323 600.874,161.573 C583.374,176.573 527.124,200.323 514.624,202.823 C502.124,205.323 473.374,196.573 463.374,194.073 C448.374,194.073 403.374,195.323 392.124,184.073 C375.874,195.323 348.374,201.573 343.374,201.573" fill="#F4BB9D" id="path869"/>
    <path d="M343.374,201.573 C342.124,205.323 335.874,247.823 333.374,256.573 C333.374,256.573 320.874,315.323 325.874,332.823 C330.874,350.323 348.374,381.573 364.624,404.073 C380.874,426.573 403.374,446.573 415.874,454.073 C428.374,461.573 453.374,460.323 458.374,460.323 C463.374,460.323 472.124,459.073 472.124,459.073 C472.124,459.073 498.374,466.573 502.124,466.573 C505.874,464.073 535.874,469.073 588.374,419.073 C590.874,411.573 599.624,390.323 603.374,376.573 C603.374,376.573 615.874,360.323 618.374,355.323 C622.124,359.073 622.124,359.073 630.874,359.073 C639.624,359.073 664.624,344.073 680.874,304.073 C684.624,287.823 678.374,247.823 664.624,249.073 C650.874,250.323 634.624,260.323 634.624,260.323 C634.624,260.323 614.624,230.323 608.374,226.573 L620.874,204.073 C620.874,204.073 619.624,175.323 600.874,161.573 C583.374,176.573 527.124,200.323 514.624,202.823 C502.124,205.323 473.374,196.573 463.374,194.073 C448.374,194.073 403.374,195.323 392.124,184.073 C375.874,195.323 348.374,201.573 343.374,201.573 z M392.124,184.073 C423.374,161.573 534.624,115.323 559.624,125.323" fill-opacity="0" stroke="#1A1919" stroke-width="7.5" stroke-linecap="round" stroke-linejoin="round" id="path871"/>
    <path d="M618.374,237.823 C620.874,252.823 617.124,317.823 614.624,330.323 C619.624,324.073 637.124,277.823 635.874,246.573" fill="#2D2118" id="path873"/>
    <path d="M618.374,237.823 C620.874,252.823 617.124,317.823 614.624,330.323 C619.624,324.073 637.124,277.823 635.874,246.573 M638.374,312.823 C643.374,309.073 647.124,306.573 644.624,302.823 C642.124,299.073 629.624,295.323 634.624,287.823 C639.624,280.323 649.624,276.573 653.374,274.073 C657.124,271.573 663.374,290.323 663.374,290.323 M390.874,270.323 C387.124,280.323 363.374,314.073 362.124,322.823 C360.874,331.573 363.374,339.073 370.874,341.573 C378.374,344.073 398.374,345.323 400.874,340.323 M388.374,375.323 C395.874,380.323 410.874,389.073 414.624,389.073 C418.374,389.073 453.374,395.323 469.624,386.573 M527.124,199.073 C533.374,192.823 552.124,202.823 550.874,230.323 M472.124,459.073 C477.124,457.823 502.124,446.573 513.374,440.323 M604.624,372.823 C600.874,377.823 584.624,392.823 580.874,397.823" fill-opacity="0" stroke="#1A1919" stroke-width="7.5" stroke-linecap="round" stroke-linejoin="round" id="path875"/>
    <path d="M496.289,288.913 C496.504,301.343 492.569,311.483 487.509,311.573 C482.449,311.653 478.174,301.648 477.959,289.228 C477.744,276.808 481.674,266.663 486.739,266.578 C491.794,266.493 496.074,276.493 496.289,288.913" fill="#1A1919" id="path877"/>
    <path d="M370.039,260.163 C370.254,272.593 366.319,282.733 361.259,282.823 C356.199,282.903 351.924,272.898 351.709,260.478 C351.494,248.058 355.424,237.913 360.489,237.828 C365.544,237.743 369.824,247.743 370.039,260.163" fill="#1A1919" id="path879"/>
    <path d="M534.334,347.188 C532.814,358.828 518.544,366.558 502.459,364.453 C486.369,362.353 474.559,351.213 476.084,339.578 C477.604,327.938 491.874,320.208 507.964,322.313 C524.049,324.413 535.859,335.543 534.334,347.188" fill="#EB9174" id="path881"/>
    <path d="M359.454,307.828 C359.004,298.008 349.384,290.183 336.754,288.338 C332.804,298.563 330.409,307.188 329.304,313.708 C328.614,317.833 328.584,323.698 328.964,330.418 C329.669,330.423 330.369,330.433 331.084,330.398 C347.289,329.663 359.989,319.553 359.454,307.828" fill="#EB9174" id="path883"/>
    <path d="M472.529,79.058 C459.199,74.058 344.199,122.388 312.529,184.058" fill-opacity="0" stroke="#1A1919" stroke-width="7.5" stroke-linecap="round" stroke-linejoin="round" id="path885"/>
    <path d="M84.234,755.343 L92.214,788.588 L352.864,837.798 L347.544,800.558 L84.234,755.343" fill="#2C2C2B" id="path887"/>
    <path d="M84.234,755.343 L92.214,788.588 L352.864,837.798 L347.544,800.558 z" fill-opacity="0" stroke="#1A1919" stroke-width="7.5" stroke-linecap="round" stroke-linejoin="round" id="path889"/>
    <path d="M347.544,800.558 L352.864,837.798 L370.154,831.148 L366.164,797.898 L347.544,800.558" fill="#636463" id="path891"/>
    <path d="M347.544,800.558 L352.864,837.798 L370.154,831.148 L366.164,797.898 L347.544,800.558" fill-opacity="0" stroke="#1A1919" stroke-width="7.5" stroke-linecap="round" stroke-linejoin="round" id="path893"/>
    <path d="M370.154,831.148 L589.579,801.888 L598.889,784.598 L367.494,813.858 L370.154,831.148" fill="#777776" id="path895"/>
    <path d="M370.154,831.148 L589.579,801.888 L598.889,784.598 L367.494,813.858 z" fill-opacity="0" stroke="#1A1919" stroke-width="7.5" stroke-linecap="round" stroke-linejoin="round" id="path897"/>
    <path d="M598.889,784.598 L367.494,813.858 L366.164,801.888 L600.224,773.958 L598.889,784.598" fill="#777776" id="path899"/>
    <path d="M598.889,784.598 L367.494,813.858 L366.164,801.888 L600.224,773.958 z" fill-opacity="0" stroke="#1A1919" stroke-width="7.5" stroke-linecap="round" stroke-linejoin="round" id="path901"/>
    <path d="M366.164,801.888 L600.224,773.958 L596.229,764.653 L351.534,730.073 L366.164,801.888" fill="#8A8B8A" id="path903"/>
    <path d="M366.164,801.888 L600.224,773.958 L596.229,764.653 L351.534,730.073 z" fill-opacity="0" stroke="#1A1919" stroke-width="7.5" stroke-linecap="round" stroke-linejoin="round" id="path905"/>
    <path d="M379.464,760.663 C379.464,760.663 350.204,765.978 344.889,767.308 M367.494,785.933 C372.814,784.598 463.239,772.633 463.239,772.633 L359.514,756.673 M407.389,767.308 C407.389,767.308 359.514,775.288 355.524,777.953 M358.184,761.993 C362.174,763.323 426.009,775.288 426.009,775.288 M338.234,764.653 C343.554,765.978 398.079,780.608 398.079,780.608" fill-opacity="0" stroke="#1A1919" stroke-width="5" stroke-linecap="round" stroke-linejoin="round" id="path907"/>
    <path d="M314.364,512.838 L294.354,522.618 L350.204,805.878 L370.154,800.558 L314.364,512.838" fill="#CBCCCB" id="path909"/>
    <path d="M314.364,512.838 L294.354,522.618 L350.204,805.878 L370.154,800.558 z" fill-opacity="0" stroke="#1A1919" stroke-width="7.5" stroke-linecap="round" stroke-linejoin="round" id="path911"/>
    <path d="M296.114,531.563 L350.204,805.878 L76.864,757.838 L4.364,520.893 C2.679,513.043 4.989,508.548 4.989,508.548 L17.744,502.168 L314.364,512.838 L298.439,522.368 C294.184,523.433 295.919,526.933 296.114,531.563" fill="#B4B5B4" id="path913"/>
    <path d="M296.114,531.563 L350.204,805.878 L76.864,757.838 L4.364,520.893 C2.679,513.043 4.989,508.548 4.989,508.548 L17.744,502.168 L314.364,512.838 L298.439,522.368 C294.184,523.433 295.919,526.933 296.114,531.563 z M15.619,514.923 C21.999,515.988 267.599,526.618 276.109,526.618" fill-opacity="0" stroke="#1A1919" stroke-width="7.5" stroke-linecap="round" stroke-linejoin="round" id="path915"/>
    <path d="M589.624,764.073 C582.124,764.073 537.124,761.573 530.874,761.573 C524.624,761.573 509.624,775.323 500.874,781.573 C502.124,789.073 514.624,791.573 522.124,790.323 C515.874,799.073 510.874,805.323 508.374,811.573 C505.874,817.823 500.874,836.573 503.374,847.823 C504.459,852.703 510.874,852.823 515.874,847.823 C517.124,852.823 518.374,855.323 524.624,856.573 C530.874,857.823 537.124,852.823 537.124,852.823 C538.374,856.573 538.374,859.073 544.624,860.323 C550.874,861.573 560.874,856.573 560.874,856.573 C562.124,864.073 563.374,865.323 568.374,864.073 C573.374,862.823 589.624,856.573 597.124,851.573 C604.624,846.573 612.124,840.323 612.124,840.323 C619.039,844.928 641.889,838.913 647.379,834.033 C647.834,833.618 648.179,833.213 648.374,832.823 C650.874,827.823 645.874,820.323 645.874,820.323 C645.874,820.323 613.374,762.823 589.624,764.073" fill="#F4BB9D" id="path917"/>
    <path d="M589.624,764.073 C582.124,764.073 537.124,761.573 530.874,761.573 C524.624,761.573 509.624,775.323 500.874,781.573 C502.124,789.073 514.624,791.573 522.124,790.323 C515.874,799.073 510.874,805.323 508.374,811.573 C505.874,817.823 500.874,836.573 503.374,847.823 C504.459,852.703 510.874,852.823 515.874,847.823 C517.124,852.823 518.374,855.323 524.624,856.573 C530.874,857.823 537.124,852.823 537.124,852.823 C538.374,856.573 538.374,859.073 544.624,860.323 C550.874,861.573 560.874,856.573 560.874,856.573 C562.124,864.073 563.374,865.323 568.374,864.073 C573.374,862.823 589.624,856.573 597.124,851.573 C604.624,846.573 612.124,840.323 612.124,840.323 C619.039,844.928 641.889,838.913 647.379,834.033 C647.834,833.618 648.179,833.213 648.374,832.823 C650.874,827.823 645.874,820.323 645.874,820.323 C645.874,820.323 613.374,762.823 589.624,764.073 z" fill-opacity="0" stroke="#1A1919" stroke-width="7.5" stroke-linecap="round" stroke-linejoin="round" id="path919"/>
    <path d="M618.374,782.823 C629.624,791.573 644.624,819.073 647.124,826.573 L648.374,832.823 C648.374,832.823 670.874,819.073 672.124,815.323 C672.124,815.323 635.874,779.073 618.374,782.823" fill="#FFFFFE" id="path921"/>
    <path d="M618.374,782.823 C629.624,791.573 644.624,819.073 647.124,826.573 L648.374,832.823 C648.374,832.823 670.874,819.073 672.124,815.323 C672.124,815.323 635.874,779.073 618.374,782.823 z" fill-opacity="0" stroke="#1A1919" stroke-width="7.5" stroke-linecap="round" stroke-linejoin="round" id="path923"/>
    <path d="M664.194,842.393 C650.444,818.643 600.874,769.073 585.874,761.573 C595.874,751.573 630.874,725.323 644.624,720.323 C644.624,720.323 639.624,711.573 640.874,706.573 C642.124,701.573 653.374,689.073 659.624,686.573 C657.124,656.573 657.124,550.323 667.124,524.073 C677.124,497.823 694.624,472.823 697.124,474.073 C705.874,475.323 718.374,497.823 722.124,507.823 C725.874,517.823 745.874,640.323 744.624,665.323 C745.874,680.323 743.374,696.573 743.374,712.823 C743.374,729.073 707.529,802.393 664.194,842.393" fill="#464D5A" id="path925"/>
    <path d="M664.194,842.393 C650.444,818.643 600.874,769.073 585.874,761.573 C595.874,751.573 630.874,725.323 644.624,720.323 C644.624,720.323 639.624,711.573 640.874,706.573 C642.124,701.573 653.374,689.073 659.624,686.573 C657.124,656.573 657.124,550.323 667.124,524.073 C677.124,497.823 694.624,472.823 697.124,474.073 C705.874,475.323 718.374,497.823 722.124,507.823 C725.874,517.823 745.874,640.323 744.624,665.323 C745.874,680.323 743.374,696.573 743.374,712.823 C743.374,729.073 707.529,802.393 664.194,842.393 z M549.624,775.323 C549.624,775.323 525.874,785.323 522.124,790.323 M564.624,794.073 C560.874,796.573 539.624,809.073 539.624,809.073 L531.239,820.338 M532.489,819.713 C532.489,819.713 515.874,840.323 515.874,847.823 M584.624,810.323 C580.874,812.823 560.874,827.823 560.874,827.823 C560.874,827.823 539.624,846.573 537.124,852.823 M597.124,830.323 C593.374,834.073 570.874,854.073 560.874,856.573" fill-opacity="0" stroke="#1A1919" stroke-width="7.5" stroke-linecap="round" stroke-linejoin="round" id="path927"/>
  </g>
</svg>
