<?xml version="1.0" encoding="iso-8859-1"?>
<!-- Generator: Adobe Illustrator 18.1.1, SVG Export Plug-In . SVG Version: 6.00 Build 0)  -->
<svg version="1.1" id="Capa_1" xmlns="http://www.w3.org/2000/svg" xmlns:xlink="http://www.w3.org/1999/xlink" x="0px" y="0px"
	 viewBox="0 0 290.125 290.125" style="enable-background:new 0 0 290.125 290.125;" xml:space="preserve">
<g>
	<path id="path33466" d="M285.324,0.005c-1.647-0.076-3.226,0.665-4.221,1.98L228.81,69.22c-3.954-2.626-8.686-4.164-13.762-4.164
		c-13.748,0-25,11.252-25,25c0,2.42,0.356,4.761,1.006,6.979l-44.277,13.283c-5.582-11.946-17.715-20.264-31.727-20.264
		c-19.271,0-35,15.729-35,35c0,4.62,0.925,9.104,2.621,13.244l-34.074,20.045c-4.584-5.081-11.21-8.289-18.549-8.289
		c-13.748,0-25,11.252-25,25c0,9.022,4.845,16.97,12.063,21.367l-16.77,46.951c-0.955,2.591,0.371,5.466,2.963,6.421
		s5.466-0.371,6.421-2.963c0.012-0.032,0.023-0.063,0.034-0.095L26.523,199.8c1.153,0.165,2.329,0.254,3.525,0.254
		c13.748,0,25-11.252,25-25c0-2.834-0.484-5.559-1.363-8.104l34.055-20.033c2.087,2.608,4.561,4.921,7.357,6.863
		c-0.027,0.421-0.045,0.846-0.045,1.273v130c-0.039,2.761,2.168,5.032,4.929,5.071s5.032-2.168,5.071-4.929
		c0.001-0.047,0.001-0.094,0-0.141v-130c0-5.626,4.374-10,10-10c5.626,0,10,4.374,10,10v60v20c0.039,2.761,2.309,4.968,5.071,4.929
		c2.706-0.038,4.891-2.223,4.929-4.929v-20c0-5.626,4.374-10,10-10s10,4.374,10,10v20c0.039,2.761,2.309,4.968,5.071,4.929
		c2.706-0.038,4.891-2.223,4.929-4.929v-20c0-5.626,4.374-10,10-10s10,4.374,10,10v20c0.039,2.761,2.309,4.968,5.071,4.929
		c2.706-0.038,4.891-2.223,4.929-4.929v-20c0-5.626,4.374-10,10-10s10,4.374,10,10v70c-0.039,2.761,2.168,5.032,4.929,5.071
		c2.761,0.039,5.032-2.168,5.071-4.929c0.001-0.047,0.001-0.094,0-0.141v-70c0-10.994-9.006-20-20-20
		c-5.989,0-11.325,2.728-15,6.939c-3.675-4.212-9.01-6.939-15-6.939c-5.989,0-11.325,2.728-15,6.939
		c-3.675-4.212-9.01-6.939-15-6.939c-3.653,0-7.043,1.065-10,2.797v-42.797c0-0.439-0.019-0.874-0.047-1.307
		c9.336-6.486,15.03-17.175,15.045-28.688c0-0.002,0-0.004,0-0.006c0-1.754-0.133-3.478-0.385-5.164l46.197-13.857
		c4.596,5.504,11.499,9.023,19.186,9.023c13.748,0,25-11.252,25-25c0-5.048-1.521-9.756-4.121-13.697l53.068-68.232
		c1.726-2.156,1.379-5.303-0.777-7.029C287.394,0.437,286.38,0.054,285.324,0.005z M215.049,75.056
		c4.029,0,7.655,1.563,10.338,4.107c0.324,0.492,0.733,0.923,1.207,1.273c2.16,2.596,3.455,5.943,3.455,9.619
		c0,8.343-6.657,15-15,15c-5.208,0-9.757-2.594-12.441-6.572c-0.205-0.566-0.511-1.091-0.902-1.549
		c-1.053-2.057-1.656-4.39-1.656-6.879C200.049,81.713,206.705,75.056,215.049,75.056z M215.049,77.556
		c-6.874,0-12.5,5.626-12.5,12.5c-0.02,1.381,1.084,2.516,2.465,2.535c1.381,0.02,2.516-1.084,2.535-2.465c0-0.024,0-0.047,0-0.071
		c0-4.172,3.328-7.5,7.5-7.5c1.381,0.02,2.516-1.084,2.535-2.465c0.02-1.381-1.084-2.516-2.465-2.535
		C215.096,77.556,215.072,77.556,215.049,77.556z M115.051,100.054c11.024,0,20.314,7.04,23.662,16.893
		c0.064,0.648,0.254,1.277,0.559,1.852c0.509,1.996,0.779,4.091,0.779,6.252c-0.01,7.271-3.171,14.061-8.504,18.742
		c-3.614-5.264-9.669-8.738-16.494-8.738c-6.835,0-12.898,3.483-16.51,8.758c-1.785-1.569-3.322-3.376-4.582-5.357
		c-0.202-0.535-0.495-1.032-0.865-1.469c-1.958-3.6-3.045-7.682-3.045-11.932C90.051,111.187,101.184,100.054,115.051,100.054z
		 M115.053,107.552c-9.635,0-17.5,7.865-17.5,17.5c-0.02,1.381,1.084,2.516,2.465,2.535c1.381,0.02,2.516-1.084,2.535-2.465
		c0-0.024,0-0.047,0-0.071c0-6.933,5.567-12.5,12.5-12.5c1.381,0.02,2.516-1.084,2.535-2.465c0.02-1.381-1.084-2.516-2.465-2.535
		C115.1,107.552,115.076,107.552,115.053,107.552z M30.049,160.054c5.203,0,9.748,2.59,12.434,6.562
		c0.208,0.588,0.524,1.132,0.932,1.604c1.039,2.046,1.635,4.362,1.635,6.834c0,8.343-6.657,15-15,15
		c-1.475,0-2.892-0.219-4.234-0.607c-0.517-0.291-1.081-0.487-1.666-0.58c-5.372-2.272-9.1-7.57-9.1-13.812
		C15.049,166.711,21.705,160.054,30.049,160.054z M30.049,162.552c-6.874,0-12.5,5.626-12.5,12.5
		c-0.02,1.381,1.084,2.516,2.465,2.535s2.516-1.084,2.535-2.465c0-0.024,0-0.047,0-0.071c0-4.172,3.328-7.5,7.5-7.5
		c1.381,0.02,2.516-1.084,2.535-2.465c0.02-1.381-1.084-2.516-2.465-2.535C30.096,162.552,30.072,162.552,30.049,162.552z"/>
</g>
<g>
</g>
<g>
</g>
<g>
</g>
<g>
</g>
<g>
</g>
<g>
</g>
<g>
</g>
<g>
</g>
<g>
</g>
<g>
</g>
<g>
</g>
<g>
</g>
<g>
</g>
<g>
</g>
<g>
</g>
</svg>
