<?xml version="1.0" encoding="iso-8859-1"?>
<!-- Generator: Adobe Illustrator 19.0.0, SVG Export Plug-In . SVG Version: 6.00 Build 0)  -->
<svg version="1.1" id="Layer_1" xmlns="http://www.w3.org/2000/svg" xmlns:xlink="http://www.w3.org/1999/xlink" x="0px" y="0px"
	 viewBox="0 0 512.001 512.001" style="enable-background:new 0 0 512.001 512.001;" xml:space="preserve">
<rect x="344.24" y="325.772" style="fill:#E46A53;" width="76.954" height="128.257"/>
<rect x="221.114" y="201.62" style="fill:#30A987;" width="76.954" height="252.409"/>
<rect x="97.988" y="84.65" style="fill:#61ACD2;" width="76.954" height="369.379"/>
<rect x="221.114" y="325.772" style="fill:#F4A026;" width="76.954" height="128.257"/>
<rect x="97.988" y="247.792" style="fill:#EFEFEF;" width="76.954" height="206.236"/>
<path style="fill:#231F20;" d="M508.459,446.276l-38.477-33.347c-4.283-3.712-10.763-3.248-14.473,1.033
	c-3.711,4.283-3.248,10.762,1.034,14.473l17.691,15.332h-42.779v-43.607h31.808c5.667,0,10.26-4.595,10.26-10.261
	s-4.594-10.261-10.26-10.261h-31.808v-53.868c0-5.666-4.594-10.261-10.261-10.261H344.24c-4.476,0-8.271,2.871-9.674,6.866
	l-26.238-28.533V201.62c0-5.666-4.594-10.261-10.261-10.261h-76.954c-2.886,0-5.49,1.196-7.355,3.115l-28.557-29.194V84.65
	c0-5.666-4.594-10.261-10.261-10.261H97.988c-5.667,0-10.261,4.595-10.261,10.261v276.36l-28.729-10.585V50.079L74.33,67.77
	c2.03,2.341,4.885,3.541,7.758,3.541c2.381,0,4.774-0.825,6.716-2.507c4.282-3.711,4.745-10.192,1.033-14.472L56.49,15.855
	c-0.065-0.075-0.124-0.136-0.186-0.203c-1.073-1.175-2.424-2.111-3.981-2.691c-4.013-1.497-8.534-0.343-11.34,2.892L7.637,54.33
	c-3.711,4.283-3.248,10.763,1.034,14.475s10.762,3.248,14.473-1.033L38.477,50.08v393.688H10.261C4.594,443.768,0,448.363,0,454.029
	s4.594,10.26,10.261,10.26h28.216v25.138c0,5.666,4.594,10.261,10.261,10.261s10.261-4.595,10.261-10.261v-25.138h415.236
	l-17.691,15.332c-4.282,3.711-4.745,10.192-1.033,14.472c2.03,2.341,4.885,3.541,7.758,3.541c2.381,0,4.774-0.825,6.716-2.507
	l38.477-33.347c0.069-0.06,0.127-0.118,0.191-0.176c1.18-1.075,2.12-2.429,2.703-3.991
	C512.851,453.602,511.696,449.081,508.459,446.276z M354.501,336.033h56.433v43.607h-23.712l-32.721-35.583V336.033z
	 M333.98,443.768h-25.651v-40.446l25.651,10.415V443.768z M333.98,352.056v39.533l-25.651-10.415v-57.013L333.98,352.056z
	 M287.808,315.511h-56.433v-73.684l20.77,21.234l35.662,38.783V315.511z M231.375,336.033h56.433v36.808l-24.356-9.89
	c-1.679-0.68-3.506-0.905-5.3-0.653l-26.777,3.793V336.033z M231.375,211.88h56.433v59.647l-20.664-22.472
	c-0.071-0.078-0.144-0.154-0.218-0.23l-35.552-36.344V211.88z M210.854,220.849v148.15l-25.651,3.634V194.626L210.854,220.849z
	 M210.854,389.725v54.043h-25.651v-50.409L210.854,389.725z M164.681,94.91v49.391l-22.21-22.706
	c-3.963-4.052-10.46-4.124-14.509-0.16c-4.051,3.962-4.123,10.459-0.16,14.509l36.879,37.702v63.884h-56.433V94.91H164.681z
	 M108.248,258.053h56.433V375.54l-27.096,3.838l-29.337-10.808V258.053z M58.998,372.295l28.729,10.585v60.888H58.998V372.295z
	 M108.248,443.768V390.44l24.669,9.089c1.592,0.587,3.305,0.767,4.987,0.531l26.777-3.793v47.501H108.248z M231.375,443.768v-56.95
	l26.917-3.814l29.515,11.985v48.779H231.375z M354.501,443.768v-37.033c0-0.025,0-0.05,0-0.075v-32.287l20.664,22.472
	c1.943,2.114,4.682,3.315,7.553,3.315h28.216v43.607h-56.433V443.768z"/>
<g>
</g>
<g>
</g>
<g>
</g>
<g>
</g>
<g>
</g>
<g>
</g>
<g>
</g>
<g>
</g>
<g>
</g>
<g>
</g>
<g>
</g>
<g>
</g>
<g>
</g>
<g>
</g>
<g>
</g>
</svg>
