<?xml version="1.0" encoding="iso-8859-1"?>
<!-- Generator: Adobe Illustrator 19.0.0, SVG Export Plug-In . SVG Version: 6.00 Build 0)  -->
<svg version="1.1" id="Layer_1" xmlns="http://www.w3.org/2000/svg" xmlns:xlink="http://www.w3.org/1999/xlink" x="0px" y="0px"
	 viewBox="0 0 512 512" style="enable-background:new 0 0 512 512;" xml:space="preserve">
<g transform="translate(0 -1)">
	<g>
		<path style="fill:#2F3744;" d="M203.034,239.346c-4.873,0-8.828-3.946-8.828-8.828V98.105c0-4.882,3.955-8.828,8.828-8.828
			c4.873,0,8.828,3.946,8.828,8.828v132.414C211.862,235.4,207.907,239.346,203.034,239.346"/>
		<path style="fill:#2F3744;" d="M459.034,239.346c-4.873,0-8.828-3.946-8.828-8.828V98.105c0-4.882,3.955-8.828,8.828-8.828
			s8.828,3.946,8.828,8.828v132.414C467.862,235.4,463.907,239.346,459.034,239.346"/>
		<path style="fill:#2F3744;" d="M26.483,274.656c-4.873,0-8.828-3.946-8.828-8.828c0-97.351,88.029-176.552,185.379-176.552
			c4.873,0,8.828,3.946,8.828,8.828s-3.955,8.828-8.828,8.828c-87.614,0-167.724,71.283-167.724,158.897
			C35.31,270.711,31.356,274.656,26.483,274.656"/>
		<path style="fill:#2F3744;" d="M17.655,301.139L17.655,301.139C7.901,301.139,0,293.239,0,283.484V36.312
			c0-9.754,7.901-17.655,17.655-17.655S35.31,26.557,35.31,36.312v247.172C35.31,293.239,27.41,301.139,17.655,301.139"/>
	</g>
	<path style="fill:#464F5D;" d="M494.345,62.794H35.31v35.31h459.034c9.754,0,17.655-7.901,17.655-17.655
		S504.099,62.794,494.345,62.794"/>
	<polygon style="fill:#C03A2B;" points="158.897,495.344 494.345,495.344 494.345,230.516 158.897,230.516 	"/>
	<polygon style="fill:#FFFFFF;" points="194.207,460.033 459.034,460.033 459.034,265.826 194.207,265.826 	"/>
	<path style="fill:#C03A2B;" d="M379.586,424.725c-4.873,0-8.828-3.946-8.828-8.828v-87.084l-38.488,32.079
		c-3.275,2.719-8.024,2.719-11.299,0l-38.488-32.079v87.084c0,4.882-3.955,8.828-8.828,8.828c-4.873,0-8.828-3.946-8.828-8.828
		V309.967c0-3.425,1.986-6.541,5.085-7.989c3.081-1.457,6.762-0.989,9.393,1.201l47.316,39.433l47.316-39.433
		c2.631-2.189,6.294-2.648,9.393-1.201c3.099,1.448,5.085,4.564,5.085,7.989v105.931
		C388.414,420.78,384.459,424.725,379.586,424.725"/>
</g>
<g>
</g>
<g>
</g>
<g>
</g>
<g>
</g>
<g>
</g>
<g>
</g>
<g>
</g>
<g>
</g>
<g>
</g>
<g>
</g>
<g>
</g>
<g>
</g>
<g>
</g>
<g>
</g>
<g>
</g>
</svg>
