<?xml version="1.0" encoding="iso-8859-1"?>
<!-- Generator: Adobe Illustrator 19.0.0, SVG Export Plug-In . SVG Version: 6.00 Build 0)  -->
<svg version="1.1" id="Layer_1" xmlns="http://www.w3.org/2000/svg" xmlns:xlink="http://www.w3.org/1999/xlink" x="0px" y="0px"
	 viewBox="0 0 392 392" style="enable-background:new 0 0 392 392;" xml:space="preserve">
<g>
	<path style="fill:#F7CF52;" d="M308.86,132.56V156H83.13v-23.44c0-6.37,5.19-11.56,11.56-11.56H297.3
		C303.68,121,308.86,126.19,308.86,132.56z"/>
	<path style="fill:#666666;" d="M375.5,179.5V392h-45.28l-28.27-59.72l-0.49-1.65c16.99-4.99,29.4-20.7,29.4-39.31V132.56
		c0-18.53-15.02-33.56-33.56-33.56h-51.85L229,71.22h-66L146.55,99H94.69c-18.53,0-33.56,15.03-33.56,33.56v158.76
		c0,18.61,12.41,34.32,29.4,39.31l-0.49,1.65L61.78,392H16.5V179.5c0-49.57,20.09-94.44,52.57-126.92C101.56,20.09,146.43,0,196,0
		C295.13,0,375.5,80.37,375.5,179.5z"/>
	<path style="fill:#008DB3;" d="M330.86,132.56v158.76c0,18.61-12.41,34.32-29.4,39.31c-3.66,1.07-7.54,1.65-11.56,1.65h-9.81H111.9
		h-9.81c-4.02,0-7.9-0.58-11.56-1.65c-16.99-4.99-29.4-20.7-29.4-39.31V132.56C61.13,114.03,76.16,99,94.69,99h51.86h98.9h51.85
		C315.84,99,330.86,114.03,330.86,132.56z M308.86,238v-82v-23.44c0-6.37-5.18-11.56-11.56-11.56H94.69
		c-6.37,0-11.56,5.19-11.56,11.56V156v82c0,10.46,8.51,18.96,18.96,18.96H289.9C300.36,256.96,308.86,248.46,308.86,238z
		 M304.78,294.62c0-7.45-6.04-13.5-13.5-13.5c-7.45,0-13.5,6.05-13.5,13.5c0,7.46,6.05,13.5,13.5,13.5
		C298.74,308.12,304.78,302.08,304.78,294.62z M114.21,294.62c0-7.45-6.04-13.5-13.5-13.5s-13.5,6.05-13.5,13.5
		c0,7.46,6.04,13.5,13.5,13.5S114.21,302.08,114.21,294.62z"/>
	<path style="fill:#76CDCE;" d="M308.86,156v82c0,10.46-8.5,18.96-18.96,18.96H102.09c-10.45,0-18.96-8.5-18.96-18.96v-82H308.86z"
		/>
	<path style="fill:#DDB74B;" d="M165.06,156H83.13v-23.44c0-6.37,5.19-11.56,11.56-11.56h35.37L165.06,156z"/>
	<polygon style="fill:#666666;" points="280.09,332.28 302.53,392 89.47,392 111.9,332.28 	"/>
	<path style="fill:#FFFFFF;" d="M291.28,281.12c7.46,0,13.5,6.05,13.5,13.5c0,7.46-6.04,13.5-13.5,13.5c-7.45,0-13.5-6.04-13.5-13.5
		C277.78,287.17,283.83,281.12,291.28,281.12z"/>
	<polygon style="fill:#027A96;" points="229,71.22 245.45,99 146.55,99 163,71.22 	"/>
	<path style="fill:#FFFFFF;" d="M100.71,281.12c7.46,0,13.5,6.05,13.5,13.5c0,7.46-6.04,13.5-13.5,13.5s-13.5-6.04-13.5-13.5
		C87.21,287.17,93.25,281.12,100.71,281.12z"/>
	<rect x="89.785" y="352.704" style="fill:#B3B3B3;" width="212.302" height="21"/>
	<path style="fill:#E6E6E6;" d="M301.95,332.28L330.22,392h-27.69l-22.44-59.72h9.81c4.02,0,7.9-0.58,11.56-1.65L301.95,332.28z"/>
	<path style="fill:#E6E6E6;" d="M111.9,332.28L89.47,392H61.78l28.26-59.72l0.49-1.65c3.66,1.07,7.54,1.65,11.56,1.65H111.9z"/>
	<path style="fill:#96E0DE;" d="M308.86,156v82c0,10.46-8.5,18.96-18.96,18.96h-23.87L165.06,156H308.86z"/>
</g>
<g>
</g>
<g>
</g>
<g>
</g>
<g>
</g>
<g>
</g>
<g>
</g>
<g>
</g>
<g>
</g>
<g>
</g>
<g>
</g>
<g>
</g>
<g>
</g>
<g>
</g>
<g>
</g>
<g>
</g>
</svg>
